<?xml version="1.0" encoding="UTF-8" standalone="no"?>
<!DOCTYPE svg PUBLIC "-//W3C//DTD SVG 1.1//EN" "http://www.w3.org/Graphics/SVG/1.1/DTD/svg11.dtd">
<svg width="100%" height="100%" viewBox="0 0 4096 1280" version="1.1" xmlns="http://www.w3.org/2000/svg" xmlns:xlink="http://www.w3.org/1999/xlink" xml:space="preserve" xmlns:serif="http://www.serif.com/" style="fill-rule:evenodd;clip-rule:evenodd;stroke-linejoin:round;stroke-miterlimit:2;">
    <g id="Prometian-Full" serif:id="Prometian Full" transform="matrix(1.84473,0,0,1.84473,-1074.77,-2699.87)">
        <g transform="matrix(1.12012,0,0,1.41491,-5.70222,14.3489)">
            <rect x="525.23" y="1024.24" width="1982.27" height="490.397" style="fill:rgb(236,56,36);"/>
        </g>
        <g transform="matrix(3.8143,0,0,3.8143,-2683.33,-4240.02)">
            <path d="M1011,1566.76L1029.08,1566.76L1029.08,1575.26L1013.58,1575.26C1009.66,1575.26 1007.91,1577.09 1007.91,1580.92L1007.91,1610.76L999.081,1610.76L999.081,1579.59C999.081,1570.76 1002.33,1566.76 1011,1566.76ZM969.509,1566.76L891.249,1566.77L891.249,1558.27L969.455,1558.26L971.873,1558.26C997.911,1558.26 997.911,1602.18 971.873,1602.18L955.023,1602.18C951.107,1602.18 949.357,1604.01 949.357,1607.84L949.357,1627.51L940.523,1627.5L940.523,1606.51C940.523,1597.68 943.773,1593.68 952.44,1593.68L971.04,1593.67C982.474,1593.67 982.04,1582.59 982.04,1580.26C982.04,1578.17 982.551,1566.76 971.04,1566.76L969.509,1566.76ZM1362.9,1610.79L1362.88,1586.01C1362.88,1579.09 1358.88,1575.26 1349.63,1575.26L1335.21,1575.26C1334.46,1575.26 1334.13,1575.67 1334.13,1576.51L1334.13,1610.76L1325.3,1610.76L1325.3,1573.59C1325.3,1568.42 1327.05,1566.76 1331.46,1566.76L1349.63,1566.76C1364.16,1566.76 1371.42,1573.48 1371.78,1585.08L1371.79,1610.79L1362.9,1610.79ZM1051.19,1566.76L1060.44,1566.76C1086.48,1566.76 1086.48,1610.76 1060.44,1610.76L1051.19,1610.76C1025.12,1610.76 1025.12,1566.76 1051.19,1566.76ZM1059.61,1575.26L1052.02,1575.26C1040.59,1575.26 1041.02,1586.35 1041.02,1588.76C1041.02,1591.4 1040.66,1602.17 1052.02,1602.17L1059.61,1602.17C1071.04,1602.17 1070.61,1591.09 1070.61,1588.76C1070.61,1586.67 1071.12,1575.26 1059.61,1575.26ZM1092.5,1566.76L1137.75,1566.76C1152.66,1566.76 1160,1573.84 1160,1586.01L1160,1610.76L1151.08,1610.76L1151.08,1586.01C1151.08,1579.09 1147.08,1575.26 1137.83,1575.26L1127.5,1575.26L1127.5,1610.76L1118.58,1610.76L1118.58,1575.26L1096.25,1575.26C1095.5,1575.26 1095.16,1575.67 1095.16,1576.51L1095.16,1610.76L1086.33,1610.76L1086.33,1573.59C1086.33,1568.42 1088.08,1566.76 1092.5,1566.76ZM1182.47,1566.76L1196.72,1566.76C1207.13,1566.76 1211.55,1571.76 1211.55,1580.26C1211.55,1588.34 1207.47,1592.92 1196.63,1592.92L1175.72,1592.92L1175.72,1596.09C1175.72,1599.59 1177.63,1602.17 1182.47,1602.17L1209.38,1602.17L1209.38,1610.76L1182.47,1610.76C1171.47,1610.76 1167.13,1604.59 1167.13,1596.26L1167.13,1581.26C1167.13,1572.92 1171.47,1566.76 1182.47,1566.76ZM1175.72,1581.34L1175.72,1586.01L1196.38,1586.01C1201.13,1586.01 1202.88,1584.01 1202.88,1580.76C1202.88,1577.42 1200.97,1575.26 1196.63,1575.26L1182.47,1575.26C1177.63,1575.26 1175.72,1577.92 1175.72,1581.34ZM1232.47,1575.26L1232.47,1596.09C1232.47,1601.01 1234.22,1602.67 1238.39,1602.67L1244.47,1602.67L1244.47,1610.76L1236.56,1610.76C1227.47,1610.76 1223.56,1607.09 1223.56,1595.59L1223.56,1575.26L1214.93,1575.26L1214.93,1566.76L1223.56,1566.76L1223.56,1558.28L1232.47,1558.28L1232.47,1566.76L1302.29,1566.76C1313.29,1566.76 1317.62,1572.92 1317.62,1581.26L1317.62,1601.92C1317.62,1608.26 1315.95,1610.76 1308.54,1610.76L1287.95,1610.76C1277.54,1610.76 1273.2,1605.67 1273.2,1597.34C1273.2,1589.34 1277.2,1584.67 1288.04,1584.67L1308.95,1584.67L1308.95,1581.34C1308.95,1577.92 1307.04,1575.26 1302.2,1575.26L1232.47,1575.26ZM1306.54,1602.17C1308.29,1602.17 1308.95,1601.51 1308.95,1599.92L1308.95,1591.67L1288.2,1591.67C1283.54,1591.67 1281.87,1593.59 1281.87,1596.84C1281.87,1600.09 1283.62,1602.17 1288.04,1602.17L1306.54,1602.17ZM1254.9,1584.79L1263.73,1584.79L1263.73,1610.76L1254.9,1610.76L1254.9,1584.79Z" style="fill:white;"/>
        </g>
    </g>
</svg>
